<svg width="600" height="400" viewBox="0 0 600 400" fill="none" xmlns="http://www.w3.org/2000/svg">
  <!-- Background Elements -->
  <circle cx="300" cy="200" r="180" fill="url(#gradient1)" fill-opacity="0.1"/>
  <circle cx="300" cy="200" r="140" fill="url(#gradient2)" fill-opacity="0.15"/>
  
  <!-- Calendar Base -->
  <rect x="200" y="100" width="200" height="200" rx="20" fill="white" stroke="#6B46C1" stroke-width="4"/>
  
  <!-- Calendar Header -->
  <rect x="200" y="100" width="200" height="40" rx="20" fill="#6B46C1"/>
  
  <!-- Calendar Days -->
  <circle cx="240" cy="180" r="15" fill="#10B981" stroke="white" stroke-width="2"/>
  <circle cx="280" cy="180" r="15" fill="#10B981" stroke="white" stroke-width="2"/>
  <circle cx="320" cy="180" r="15" fill="#6B46C1" stroke="white" stroke-width="2"/>
  <circle cx="360" cy="180" r="15" fill="#D1D5DB" stroke="white" stroke-width="2"/>
  
  <circle cx="240" cy="220" r="15" fill="#10B981" stroke="white" stroke-width="2"/>
  <circle cx="280" cy="220" r="15" fill="#10B981" stroke="white" stroke-width="2"/>
  <circle cx="320" cy="220" r="15" fill="#D1D5DB" stroke="white" stroke-width="2"/>
  <circle cx="360" cy="220" r="15" fill="#D1D5DB" stroke="white" stroke-width="2"/>
  
  <circle cx="240" cy="260" r="15" fill="#10B981" stroke="white" stroke-width="2"/>
  <circle cx="280" cy="260" r="15" fill="#D1D5DB" stroke="white" stroke-width="2"/>
  <circle cx="320" cy="260" r="15" fill="#D1D5DB" stroke="white" stroke-width="2"/>
  <circle cx="360" cy="260" r="15" fill="#D1D5DB" stroke="white" stroke-width="2"/>
  
  <!-- Decorative Elements -->
  <path d="M160 140C160 140 140 160 140 200C140 240 160 260 160 260" stroke="#3B82F6" stroke-width="4" stroke-linecap="round"/>
  <path d="M440 140C440 140 460 160 460 200C460 240 440 260 440 260" stroke="#3B82F6" stroke-width="4" stroke-linecap="round"/>
  
  <!-- Gradients -->
  <defs>
    <linearGradient id="gradient1" x1="0" y1="0" x2="600" y2="400" gradientUnits="userSpaceOnUse">
      <stop offset="0%" stop-color="#6B46C1"/>
      <stop offset="100%" stop-color="#3B82F6"/>
    </linearGradient>
    <linearGradient id="gradient2" x1="600" y1="0" x2="0" y2="400" gradientUnits="userSpaceOnUse">
      <stop offset="0%" stop-color="#10B981"/>
      <stop offset="100%" stop-color="#3B82F6"/>
    </linearGradient>
  </defs>
</svg> 